
nColumns=19
nRows=73
DataType=double
version=3
OpenSimVersion=4.4-2022-10-11-798caa840
endheader
time	ground_force_calcn_r_vx	ground_force_calcn_r_vy	ground_force_calcn_r_vz	ground_force_calcn_r_px	ground_force_calcn_r_py	ground_force_calcn_r_pz	ground_force_calcn_r_mx	ground_force_calcn_r_my	ground_force_calcn_r_mz	ground_force_calcn_l_vx	ground_force_calcn_l_vy	ground_force_calcn_l_vz	ground_force_calcn_l_px	ground_force_calcn_l_py	ground_force_calcn_l_pz	ground_force_calcn_l_mx	ground_force_calcn_l_my	ground_force_calcn_l_mz
1.41	-114.799	189.386	-25.9111	-0.0928413	0	-0.438142	-0.168304	0.277653	-0.0379874	0	0	0	0	0	0	0	0	0
1.42	-460.314	862.379	-79.99550000000001	-0.109214	0	-0.442362	-1.30932	2.45296	-0.22754	0	0	0	0	0	0	0	0	0
1.43	-409.801	1087.32	-97.9314	-0.118274	0	-0.443601	-2.15709	5.72338	-0.515485	0	0	0	0	0	0	0	0	0
1.44	-161.862	951.612	-90.24290000000001	-0.127966	0	-0.44183	-1.04325	6.13343	-0.581643	0	0	0	0	0	0	0	0	0
1.45	-244.502	1270.4	-168.318	-0.158052	0	-0.446063	-0.432612	2.2478	-0.297815	0	0	0	0	0	0	0	0	0
1.46	-191.298	2053.88	-160.918	-0.205925	0	-0.462584	1.13241	-12.1582	0.9525709999999999	-271.663	355.882	35.0547	-0.0786656	0	-0.803971	0.698206	-0.91466	-0.0900947
1.47	-49.9527	2442.16	14.3213	-0.22371	0	-0.475361	0.611026	-29.8727	-0.175179	-414.226	781.947	57.8616	-0.0908072	0	-0.804386	1.84889	-3.49021	-0.258264
1.48	-199.673	1915.43	43.5255	-0.20392	0	-0.472734	3.60324	-34.5654	-0.78545	-126.926	820.708	107.854	-0.103323	0	-0.805827	1.20882	-7.81629	-1.02718
1.49	-387.334	1301.46	-79.1277	-0.158233	0	-0.456631	6.29481	-21.1508	1.28596	-4.646	861.1559999999999	117.535	-0.113016	0	-0.805583	0.0331257	-6.13999	-0.838019
1.5	-376.736	1018.83	-130.601	-0.123968	0	-0.448224	3.25067	-8.79096	1.12689	-112.366	975.7329999999999	104.745	-0.115679	0	-0.80204	0.0768494	-0.6673210000000001	-0.0716368
1.51	-319.647	952.138	-114.066	-0.116611	0	-0.449547	2.11321	-6.29467	0.754103	-215.78	1076.67	77.33929999999999	-0.116164	0	-0.797756	-1.01239	5.05151	0.362859
1.52	-291.026	929.682	-89.4618	-0.115162	0	-0.45205	2.1422	-6.84324	0.658514	-174.169	1135.85	42.4522	-0.117874	0	-0.792388	-1.71953	11.214	0.419119
1.53	-275.429	913.318	-72.7743	-0.11357	0	-0.453929	2.13129	-7.06731	0.563132	-103.979	1161.8	18.2303	-0.117432	0	-0.787138	-1.46302	16.3468	0.256506
1.54	-248.952	905.427	-59.8252	-0.113763	0	-0.455386	1.8953	-6.89313	0.455457	-119.91	1152.76	7.24142	-0.111239	0	-0.7839120000000001	-1.78469	17.1572	0.107778
1.55	-205.963	912.772	-54.8246	-0.116677	0	-0.456132	1.4305	-6.33957	0.380778	-140.88	1088.77	21.2734	-0.103428	0	-0.78276	-1.63163	12.6098	0.246382
1.56	-162.9	945.932	-56.7902	-0.121699	0	-0.456366	0.974596	-5.6593	0.339763	-125.358	1000.7	49.4068	-0.09813860000000001	0	-0.783043	-0.790568	6.3109	0.311583
1.57	-127.086	1004.6	-55.2279	-0.128249	0	-0.456808	0.7366740000000001	-5.82328	0.320136	-115.045	926.951	72.62949999999999	-0.0949237	0	-0.7841939999999999	-0.171117	1.37875	0.108029
1.58	-94.0401	1070.19	-40.4494	-0.135808	0	-0.458353	0.657809	-7.48594	0.282943	-114.787	871.269	86.96729999999999	-0.0929348	0	-0.78545	0.246735	-1.8728	-0.186937
1.59	-68.42619999999999	1101.85	-16.5095	-0.141444	0	-0.460171	0.599966	-9.661149999999999	0.144757	-106.758	827.941	94.4648	-0.0922124	0	-0.786571	0.49478	-3.83718	-0.437807
1.6	-59.4415	1059.66	-3.40122	-0.141951	0	-0.460574	0.5727989999999999	-10.2113	0.0327753	-89.3306	797.101	93.79770000000001	-0.0926005	0	-0.787212	0.51088	-4.5586	-0.536427
1.61	-64.129	957.951	-9.96345	-0.137698	0	-0.459095	0.559819	-8.36251	0.08697680000000001	-68.24299999999999	778.145	84.3014	-0.0937955	0	-0.787183	0.343429	-3.91597	-0.424242
1.62	-70.67789999999999	853.603	-24.7761	-0.132531	0	-0.456986	0.468569	-5.65907	0.164257	-49.8689	770.297	69.9121	-0.0955614	0	-0.78673	0.144546	-2.23272	-0.202642
1.63	-71.03230000000001	782.366	-35.2568	-0.129734	0	-0.455771	0.348213	-3.8353	0.172835	-33.4735	773.314	55.3689	-0.0979956	0	-0.786404	0.0166206	-0.383973	-0.0274923
1.64	-66.3912	755.635	-38.1242	-0.129986	0	-0.455668	0.294181	-3.34823	0.168929	-14.8219	784.033	44.7202	-0.101175	0	-0.786761	-0.0169157	0.8947889999999999	0.0510376
1.65	-57.3429	777.785	-33.5816	-0.133766	0	-0.456595	0.302089	-4.09745	0.176911	5.48231	789.287	40.3945	-0.104601	0	-0.787802	0.009528490000000001	1.37181	0.0702073
1.66	-37.219	837.754	-22.0671	-0.140746	0	-0.458492	0.25275	-5.6891	0.149855	22.4709	775.889	40.9149	-0.107538	0	-0.789323	0.0341308	1.17849	0.062145
1.67	-9.30878	903.133	-9.453279999999999	-0.148017	0	-0.460605	0.07271089999999999	-7.05438	0.07383960000000001	31.2429	747.519	44.2698	-0.109544	0	-0.791075	0.0264026	0.631709	0.0374113
1.68	11.917	934.22	-2.80988	-0.152045	0	-0.461726	-0.0938956	-7.36087	0.0221395	30.7136	718.698	50.2873	-0.110535	0	-0.792613	-0.000771608	-0.0180556	-0.00126335
1.69	14.3953	909.2809999999999	-4.34591	-0.150562	0	-0.461094	-0.105305	-6.65162	0.0317914	25.0571	700.479	58.0697	-0.110768	0	-0.7938499999999999	-0.0247345	-0.691462	-0.0573223
1.7	3.28317	847.509	-6.95537	-0.144726	0	-0.459627	-0.0220637	-5.69546	0.0467418	19.041	698.617	64.54179999999999	-0.110296	0	-0.794651	-0.0356967	-1.30972	-0.120998
1.71	-7.34586	782.321	-5.84293	-0.137911	0	-0.458627	0.0474296	-5.05117	0.0377257	11.2242	705.515	67.2265	-0.108759	0	-0.794486	-0.0273759	-1.72076	-0.163966
1.72	-14.302	736.2670000000001	-3.77943	-0.132409	0	-0.458305	0.09005100000000001	-4.63583	0.0237968	1.69426	707.548	65.1812	-0.106043	0	-0.79313	-0.00433838	-1.81177	-0.166905
1.73	-20.5318	719.277	-3.24698	-0.128678	0	-0.458392	0.123599	-4.32995	0.0195464	-6.59934	699.519	59.2655	-0.10246	0	-0.790729	0.015175	-1.60852	-0.136279
1.74	-25.2789	727.404	-2.21741	-0.126216	0	-0.458619	0.146046	-4.20251	0.0128109	-13.8797	684.54	51.4756	-0.0984816	0	-0.787618	0.025761	-1.27052	-0.0955396
1.75	-24.8222	748.837	2.93349	-0.124461	0	-0.459032	0.146851	-4.4302	-0.0173549	-18.1791	670.228	43.7428	-0.0943445	0	-0.784213	0.0274735	-1.0129	-0.06610729999999999
1.76	-22.5952	772.905	11.2875	-0.122585	0	-0.459608	0.142389	-4.87062	-0.07113079999999999	-19.7646	663.179	36.9748	-0.0904421	0	-0.780876	0.0272886	-0.915637	-0.0510503
1.77	-23.4403	788.0940000000001	19.0511	-0.120124	0	-0.460209	0.154316	-5.18833	-0.125421	-23.2834	664.603	31.1479	-0.086671	0	-0.777652	0.0316106	-0.902293	-0.0422878
1.78	-26.6188	789.024	23.9135	-0.117143	0	-0.460713	0.175424	-5.19986	-0.157596	-27.9577	671.774	26.8177	-0.0831788	0	-0.774783	0.0380983	-0.9154369999999999	-0.0365449
1.79	-32.7731	779.679	24.9852	-0.113962	0	-0.460993	0.208028	-4.94902	-0.158593	-32.9074	679.274	23.5912	-0.0799453	0	-0.772088	0.0453964	-0.937072	-0.0325445
1.8	-40.7917	765.074	24.4074	-0.110922	0	-0.461115	0.25198	-4.72605	-0.150771	-38.9194	681.893	19.1225	-0.07689269999999999	0	-0.769424	0.0509846	-0.893284	-0.0250506
1.81	-48.2329	749.013	24.0399	-0.108161	0	-0.461133	0.297089	-4.61352	-0.148073	-45.5253	677.081	12.3453	-0.07375710000000001	0	-0.766662	0.0432222	-0.642828	-0.0117207
1.82	-54.0481	734.753	23.5022	-0.105797	0	-0.461106	0.332848	-4.52488	-0.144735	-51.7155	665.403	4.00921	-0.0706214	0	-0.763992	0.0184636	-0.237563	-0.00143137
1.83	-56.8875	722.4640000000001	22.8298	-0.10385	0	-0.461019	0.353378	-4.48786	-0.141816	-56.1583	648.532	-4.07187	-0.0675371	0	-0.761642	-0.0105896	0.122291	-0.000767817
1.84	-59.3538	714.117	21.7015	-0.102274	0	-0.460803	0.373927	-4.49891	-0.136719	-58.7701	626.282	-10.3172	-0.0645741	0	-0.75951	-0.0312924	0.333467	-0.00549345
1.85	-63.1045	707.95	20.14	-0.100916	0	-0.460452	0.404995	-4.54352	-0.129256	-60.3208	598.549	-14.4854	-0.0618184	0	-0.757717	-0.0469546	0.465919	-0.0112756
1.86	-65.3081	700.283	18.7998	-0.0996307	0	-0.460009	0.432034	-4.6326	-0.124367	-60.2152	569.21	-17.3505	-0.0590184	0	-0.756317	-0.0606813	0.573616	-0.0174848
1.87	-66.6799	692.567	16.9608	-0.0983974	0	-0.459445	0.451467	-4.68913	-0.114836	-58.1954	542.676	-19.3195	-0.0564872	0	-0.755211	-0.0690084	0.643508	-0.0229091
1.88	-66.9178	684.524	14.8483	-0.0972494	0	-0.45883	0.453099	-4.63489	-0.100537	-54.1637	518.689	-20.7329	-0.054172	0	-0.7541369999999999	-0.0654439	0.626712	-0.0250507
1.89	-61.9249	677.809	13.2356	-0.0963571	0	-0.458256	0.41113	-4.50009	-0.08787349999999999	-47.7855	498.862	-22.8427	-0.0524197	0	-0.7532	-0.0599433	0.625784	-0.0286544
1.9	-52.9208	676.696	11.3792	-0.0958608	0	-0.457743	0.339285	-4.33843	-0.072954	-38.3212	483.808	-25.8264	-0.0512039	0	-0.7524690000000001	-0.0572403	0.722664	-0.0385769
1.91	-42.0077	679.1420000000001	9.589969999999999	-0.09564690000000001	0	-0.457422	0.258363	-4.17698	-0.0589819	-27.9556	472.492	-29.2789	-0.0501247	0	-0.7516389999999999	-0.0519562	0.8781369999999999	-0.0544155
1.92	-31.7136	683.232	7.74139	-0.09552869999999999	0	-0.457086	0.189396	-4.08031	-0.0462321	-18.396	465.247	-32.7168	-0.0495464	0	-0.7508590000000001	-0.0411207	1.03997	-0.073132
1.93	-23.4565	686.718	6.33599	-0.0953668	0	-0.456772	0.14001	-4.09897	-0.0378191	-9.11266	461.285	-35.3098	-0.049163	0	-0.7502450000000001	-0.0227791	1.15308	-0.08826440000000001
1.94	-15.699	687.816	6.28695	-0.0950767	0	-0.456627	0.0983055	-4.30703	-0.0393683	0.9350309999999999	458.123	-36.2695	-0.0489204	0	-0.749651	0.00225196	1.10336	-0.08735279999999999
1.95	-11.228	692.384	5.63297	-0.0948504	0	-0.456539	0.0761999	-4.69892	-0.0382286	12.2651	456.883	-35.1469	-0.0489298	0	-0.749203	0.0258479	0.96285	-0.07406980000000001
1.96	-10.7766	705.058	3.86313	-0.0948196	0	-0.456726	0.07782020000000001	-5.09136	-0.0278964	22.7072	459.949	-32.0482	-0.0492613	0	-0.748982	0.0377159	0.7639590000000001	-0.0532308
1.97	-8.319140000000001	726.293	2.15768	-0.0950981	0	-0.457096	0.061751	-5.3911	-0.016016	33.0194	467.283	-27.5849	-0.0495668	0	-0.748861	0.0391708	0.554335	-0.0327239
1.98	-4.55905	757.2569999999999	-0.8257679999999999	-0.0958176	0	-0.457289	0.033065	-5.49209	0.00598898	45.1084	481.399	-20.5258	-0.0503329	0	-0.748963	0.0340654	0.363547	-0.0155009
1.99	-3.67637	798.194	-6.79581	-0.0968019	0	-0.457369	0.0244602	-5.31067	0.045215	55.6364	505.363	-11.4241	-0.0516635	0	-0.749261	0.0194082	0.176291	-0.00398518
2	-3.42298	843.221	-13.9641	-0.097819	0	-0.457524	0.0203482	-5.01261	0.0830113	65.38590000000001	535.296	-2.4175	-0.0532601	0	-0.749447	0.0099097	0.0811279	-0.000366389
2.01	-2.41227	884.7910000000001	-20.4521	-0.09866220000000001	0	-0.457847	0.013018	-4.77485	0.110372	75.9036	568.215	4.86277	-0.0549804	0	-0.749375	0.0266852	0.199766	0.00170959
2.02	-4.54422	920.3680000000001	-26.7192	-0.0992194	0	-0.458284	0.0228779	-4.63359	0.134518	82.2516	605.029	11.484	-0.0568602	0	-0.749405	0.0460218	0.338529	0.0064256
2.03	-10.3473	948.715	-32.4981	-0.0995424	0	-0.458855	0.050436	-4.62434	0.158406	83.61199999999999	644.403	20.8451	-0.0586552	0	-0.749624	0.0281075	0.216626	0.00700743
2.04	-19.4667	973.929	-38.3842	-0.0996798	0	-0.459412	0.0947675	-4.74126	0.186861	79.13379999999999	690.75	34.3135	-0.0604384	0	-0.750213	-0.0299268	-0.261228	-0.0129767
2.05	-30.7576	1002.43	-45.066	-0.0998212	0	-0.459996	0.149418	-4.8697	0.218926	66.9639	750.55	51.3125	-0.0622515	0	-0.7511409999999999	-0.0985774	-1.10488	-0.0755371
2.06	-39.7897	1035.13	-52.5522	-0.10011	0	-0.460533	0.189409	-4.9275	0.250162	51.6482	821.593	70.6806	-0.06415700000000001	0	-0.751992	-0.136915	-2.17797	-0.187368
2.07	-44.835	1069.31	-60.9209	-0.10044	0	-0.461052	0.205676	-4.90536	0.279469	39.5573	898.373	90.02809999999999	-0.0659477	0	-0.752646	-0.137115	-3.11398	-0.312059
2.08	-46.4276	1103.98	-69.81310000000001	-0.100796	0	-0.461414	0.207182	-4.9265	0.311539	29.8279	976.881	105.554	-0.0676296	0	-0.753035	-0.109163	-3.57514	-0.386303
2.09	-47.824	1134.63	-77.62260000000001	-0.101047	0	-0.461591	0.216864	-5.14513	0.351989	21.0193	1046.79	114.703	-0.0690187	0	-0.753089	-0.0695711	-3.46474	-0.379651
2.1	-51.943	1155.78	-82.035	-0.101075	0	-0.461708	0.252773	-5.62445	0.39921	10.33	1099.67	115.375	-0.0699987	0	-0.752892	-0.0270324	-2.87769	-0.301921
2.11	-59.3619	1165.28	-82.5398	-0.100871	0	-0.461726	0.320096	-6.28354	0.445077	-5.54916	1134.5	109.023	-0.070481	0	-0.75261	0.0107675	-2.20137	-0.211547
2.12	-69.3673	1165.46	-81.1221	-0.100523	0	-0.461555	0.417545	-7.01531	0.488301	-25.319	1153.24	100.235	-0.07050679999999999	0	-0.752414	0.0423353	-1.92831	-0.167601
2.13	-80.88760000000001	1159.79	-79.75790000000001	-0.100161	0	-0.461175	0.535535	-7.67866	0.528056	-46.8671	1157.51	92.6104	-0.07012110000000001	0	-0.752509	0.09422079999999999	-2.32705	-0.186182
